<?xml version="1.0" encoding="utf-8"?>
<!-- Generator: Adobe Illustrator 17.0.0, SVG Export Plug-In . SVG Version: 6.00 Build 0)  -->
<!DOCTYPE svg PUBLIC "-//W3C//DTD SVG 1.1//EN" "http://www.w3.org/Graphics/SVG/1.1/DTD/svg11.dtd">
<svg version="1.1" id="Layer_1" xmlns="http://www.w3.org/2000/svg" xmlns:xlink="http://www.w3.org/1999/xlink" x="0px" y="0px"
	 width="100px" height="100px" viewBox="0 0 100 100" enable-background="new 0 0 100 100" xml:space="preserve">
<polygon fill="#FFFFFF" points="83.621,66.571 35.533,65.146 35.481,67.337 83.485,68.554 "/>
<polygon fill="#FFFFFF" points="33.505,65.108 33.505,67.355 23.943,68.039 23.943,66.571 "/>
<g>
	<g>
		<path fill="#FFFFFF" d="M23.947,24.111v7.264l0.052,1.429c1.623,1.371,2.775,5.346,2.738,10.021
			c-0.035,4.389-1.306,8.481-2.794,10.043l0.004,1.953v10.287l9.558-1.761V16.596C33.505,16.596,23.694,21.346,23.947,24.111z"/>
	</g>
</g>
<path fill="#FFFFFF" d="M19.554,42.77c-0.036,4.46,1.334,8.084,3.057,8.101c1.724,0.012,3.152-3.592,3.188-8.052
	c0.034-4.456-1.334-8.085-3.058-8.096C21.016,34.713,19.589,38.311,19.554,42.77z"/>
<path fill="#FFFFFF" d="M96.133,100V74.663c0,0,0.499-4.209-3.521-4.524L24.7,69.134c0,0-6.791-1.26-7.043,4.777V100
	C17.657,100,96.133,100,96.133,100z"/>
<path fill="#FFFFFF" d="M16.217,100V73.998c0,0,0.185-3.438-2.972-3.344c0,0-8.32-0.002-10.03,6.975V100
	C3.215,100,16.217,100,16.217,100z"/>
<path fill="#FFFFFF" d="M78.775,16.318l-37.224-1.763c0,0-5.783-0.754-6.287,4.527V60.58v2.768l48.29,1.01v-42.51
	C83.555,21.848,83.555,16.819,78.775,16.318z M49.68,41.839c-2.648,0-4.795-2.148-4.795-4.798c0-2.647,2.147-4.793,4.795-4.793
	c2.649,0,4.795,2.146,4.795,4.793C54.476,39.691,52.329,41.839,49.68,41.839z M71.869,41.839c-2.648,0-4.796-2.148-4.796-4.798
	c0-2.647,2.147-4.793,4.796-4.793c2.649,0,4.797,2.146,4.797,4.793C76.666,39.691,74.519,41.839,71.869,41.839z"/>
</svg>
